<svg id="圖層_1" data-name="圖層 1" xmlns="http://www.w3.org/2000/svg" viewBox="0 0 69.27 89.91"><defs><style>.cls-1{fill:#3cabce;stroke:#3cabce;stroke-linecap:round;stroke-linejoin:round;}</style></defs><path class="cls-1" d="M76.4,49.53C79,73.06,54.2,90.72,32.48,82.16A30.24,30.24,0,0,1,16.63,68.42c12,13.68,32.65,16.21,46.9,4.8A35.79,35.79,0,0,0,76.4,49.53Z" transform="translate(-16.13 -6.02)"/><circle class="cls-1" cx="37.81" cy="21.71" r="2.5"/><path class="cls-1" d="M40.88,14.23a2.07,2.07,0,0,1-1-.27,30.27,30.27,0,0,0-8.78-3.38,2,2,0,0,1,.86-4,34.75,34.75,0,0,1,10,3.84,2,2,0,0,1-1,3.79Z" transform="translate(-16.13 -6.02)"/><path class="cls-1" d="M33.29,7.6c14.88,27.28,12.63,62.87-5.76,87.82A81.73,81.73,0,0,0,38.32,30.2,80.86,80.86,0,0,0,29.75,9.59a2,2,0,1,1,3.54-2Z" transform="translate(-16.13 -6.02)"/><path class="cls-1" d="M82.28,71C88,53.39,80.14,32.91,64,24a40.18,40.18,0,0,0-16.8-5.08,2,2,0,1,1,.38-4.05C74.36,18,91.75,45.62,82.28,71Z" transform="translate(-16.13 -6.02)"/></svg>