<?xml version="1.0" encoding="utf-8"?>
<!-- Generator: Adobe Illustrator 24.1.2, SVG Export Plug-In . SVG Version: 6.00 Build 0)  -->
<svg version="1.1" id="圖層_1" xmlns="http://www.w3.org/2000/svg" xmlns:xlink="http://www.w3.org/1999/xlink" x="0px" y="0px"
	 viewBox="0 0 400 400" style="enable-background:new 0 0 400 400;" xml:space="preserve">
<style type="text/css">
	.st0{fill:#231815;}
	.st1{fill:#221714;}
	.st2{fill:none;stroke:#231815;stroke-linecap:round;stroke-miterlimit:10;}
	.st3{fill:none;stroke:#231815;stroke-width:6;stroke-linecap:round;stroke-linejoin:round;stroke-miterlimit:10;}
</style>
<path class="st0" d="M294.5,193.6c-0.1,42.7-20.5,83.3-54.8,108.9c-35.6,26.5-84,34.1-125.8,18.7c-24.1-8.8-44.1-24.1-58.7-44.8
	c-1.5-2.1-4.3-4.9-6.9-5.3c-2.7-0.4-1.1,2.5-0.3,3.7c29.4,41.6,79.1,66.9,130.3,62.8c43.5-3.5,83.7-28.4,106.3-65.7
	c12.9-21.3,19.7-46,19.8-70.9c0-2.5-3-5-4.8-6.3C299,194.2,294.5,191.3,294.5,193.6L294.5,193.6z"/>
<g>
	<circle class="st0" cx="204.3" cy="103.7" r="7.2"/>
	<path class="st1" d="M208.4,104c0,0.7-0.1,1.3-0.3,1.9c-0.1,0.6,0.2-0.4-0.1,0.2c-0.1,0.1-0.1,0.2-0.2,0.4c-0.2,0.3-0.4,0.7-0.6,1
		c0.3-0.5-0.2,0.2-0.3,0.4c-0.1,0.1-0.2,0.2-0.3,0.3c-0.4,0.5,0.5-0.3,0,0c-0.1,0.1-0.2,0.2-0.3,0.2c-0.1,0-0.1,0.1-0.2,0.1
		c-0.3,0.2-0.2,0.1,0.2-0.1c0,0-0.3,0.1-0.3,0.2c-0.1,0.1-0.9,0.3-0.3,0.2c0.6-0.2-0.1,0-0.2,0c-0.2,0-0.3,0.1-0.5,0.1
		c-0.4,0.1,0.8-0.1,0.2,0c-0.2,0-0.3,0-0.5,0c-0.4,0,0.7,0.1,0.1,0c-0.2,0-0.3,0-0.5,0c-0.3,0-0.3-0.2,0,0c-0.1-0.1-0.4-0.1-0.6-0.1
		c-0.2-0.1-0.4-0.1-0.5-0.2c-0.1,0-0.4-0.2,0.1,0c-0.3-0.2-0.6-0.3-0.8-0.5c-0.1-0.1-0.3-0.2-0.4-0.3c-0.1-0.1-0.4-0.4-0.1,0
		c-0.3-0.3-0.5-0.5-0.8-0.8c-0.2-0.2-0.4-0.5-0.5-0.8c-0.1-0.1-0.1-0.2-0.2-0.3c0.2,0.4-0.1-0.1-0.1-0.2c-0.3-0.6-0.4-1.3-0.5-2
		c0-0.4,0,0.5,0-0.1c0-0.1,0-0.3,0-0.4c0-0.3,0.1-0.7,0.1-1c0-0.2,0.1-0.4,0.1-0.6c0.1-0.4,0-0.1,0,0c0.1-0.4,0.3-0.7,0.5-1
		c0.1-0.1,0.2-0.3,0.2-0.4c0.1-0.3-0.4,0.4,0,0c0.2-0.2,0.4-0.5,0.6-0.7c0.4-0.4-0.4,0.2,0,0c0.1-0.1,0.3-0.2,0.4-0.3
		c0,0,0.3-0.2,0.3-0.2c-0.4,0.2-0.5,0.3-0.2,0.1c0.1-0.1,0.2-0.1,0.3-0.2c0.1,0,0.3-0.1,0.4-0.2c-0.1,0.1-0.3,0.1-0.4,0.2
		c0.1,0,0.2-0.1,0.4-0.1c0.1,0,0.3-0.1,0.4-0.1c0.7-0.2-0.6,0.1-0.2,0c0.2,0,0.3,0,0.5,0c0.7-0.1-0.5,0-0.1,0c0.2,0,0.3,0,0.5,0
		c0.1,0,0.3,0,0.4,0.1c-0.1,0-0.2,0-0.3-0.1c0.3,0,0.8,0.2,1.1,0.3c0.6,0.2-0.3-0.2,0,0c0.2,0.1,0.4,0.2,0.6,0.3
		c0.1,0.1,0.2,0.1,0.3,0.2c0.1,0.1,0.7,0.6,0.3,0.2c0.2,0.2,0.4,0.4,0.6,0.7c0.2,0.3,0.5,0.6,0.7,0.9c0,0.1,0.3,0.6,0.1,0.2
		c0.1,0.2,0.2,0.3,0.2,0.5c0.1,0.4,0.2,0.7,0.3,1.1c0,0.1,0,0.3,0.1,0.4C208.4,103.7,208.4,103.8,208.4,104
		C208.4,103.7,208.4,103.7,208.4,104c0,1.5,1.5,2,2.8,1.8c0.8-0.1,1.7-0.3,2.3-0.8c0.5-0.4,1.1-0.9,1.1-1.6
		c-0.1-3.9-2.4-7.2-6.1-8.5c-4.2-1.5-9.3-0.1-12.2,3.3c-2.6,3-3,7.1-1,10.5c2.2,3.7,6.8,4.8,10.8,4.1c4.4-0.8,8.4-4.7,8.5-9.3
		c0-1.5-1.5-2-2.8-1.8C210.7,101.7,208.4,102.5,208.4,104z"/>
</g>
<g>
	<circle class="st0" cx="369.8" cy="320.1" r="7.2"/>
	<path class="st1" d="M373.9,320.3c0,0.7-0.1,1.3-0.3,1.9c-0.1,0.6,0.2-0.4-0.1,0.2c-0.1,0.1-0.1,0.2-0.2,0.4
		c-0.2,0.3-0.4,0.7-0.6,1c0.3-0.5-0.2,0.2-0.3,0.4c-0.1,0.1-0.2,0.2-0.3,0.3c-0.4,0.5,0.5-0.3,0,0c-0.1,0.1-0.2,0.2-0.3,0.2
		c-0.1,0-0.1,0.1-0.2,0.1c-0.3,0.2-0.2,0.1,0.2-0.1c0,0-0.3,0.1-0.3,0.2c-0.1,0.1-0.9,0.3-0.3,0.2c0.6-0.2-0.1,0-0.2,0
		c-0.2,0-0.3,0.1-0.5,0.1c-0.4,0.1,0.8-0.1,0.2,0c-0.2,0-0.3,0-0.5,0c-0.4,0,0.7,0.1,0.1,0c-0.2,0-0.3,0-0.5,0c-0.3,0-0.3-0.2,0,0
		c-0.1-0.1-0.4-0.1-0.6-0.1c-0.2-0.1-0.4-0.1-0.5-0.2c-0.1,0-0.4-0.2,0.1,0c-0.3-0.2-0.6-0.3-0.8-0.5c-0.1-0.1-0.3-0.2-0.4-0.3
		c-0.1-0.1-0.4-0.4-0.1,0c-0.3-0.3-0.5-0.5-0.8-0.8c-0.2-0.2-0.4-0.5-0.5-0.8c-0.1-0.1-0.1-0.2-0.2-0.3c0.2,0.4-0.1-0.1-0.1-0.2
		c-0.3-0.6-0.4-1.3-0.5-2c0-0.4,0,0.5,0-0.1c0-0.1,0-0.3,0-0.4c0-0.3,0.1-0.7,0.1-1c0-0.2,0.1-0.4,0.1-0.6c0.1-0.4,0-0.1,0,0
		c0.1-0.4,0.3-0.7,0.5-1c0.1-0.1,0.2-0.3,0.2-0.4c0.1-0.3-0.4,0.4,0,0c0.2-0.2,0.4-0.5,0.6-0.7c0.4-0.4-0.4,0.2,0,0
		c0.1-0.1,0.3-0.2,0.4-0.3c0,0,0.3-0.2,0.3-0.2c-0.4,0.2-0.5,0.3-0.2,0.1c0.1-0.1,0.2-0.1,0.3-0.2c0.1,0,0.3-0.1,0.4-0.2
		c-0.1,0.1-0.3,0.1-0.4,0.2c0.1,0,0.2-0.1,0.4-0.1c0.1,0,0.3-0.1,0.4-0.1c0.7-0.2-0.6,0.1-0.2,0c0.2,0,0.3,0,0.5,0
		c0.7-0.1-0.5,0-0.1,0c0.2,0,0.3,0,0.5,0c0.1,0,0.3,0,0.4,0.1c-0.1,0-0.2,0-0.3-0.1c0.3,0,0.8,0.2,1.1,0.3c0.6,0.2-0.3-0.2,0,0
		c0.2,0.1,0.4,0.2,0.6,0.3c0.1,0.1,0.2,0.1,0.3,0.2c0.1,0.1,0.7,0.6,0.3,0.2c0.2,0.2,0.4,0.4,0.6,0.7c0.2,0.3,0.5,0.6,0.7,0.9
		c0,0.1,0.3,0.6,0.1,0.2c0.1,0.2,0.2,0.3,0.2,0.5c0.1,0.4,0.2,0.7,0.3,1.1c0,0.1,0,0.3,0.1,0.4C373.9,320,373.9,320.1,373.9,320.3
		C373.9,320,373.9,320.1,373.9,320.3c0,1.5,1.5,2,2.8,1.8c0.8-0.1,1.7-0.3,2.3-0.8c0.5-0.4,1.1-0.9,1.1-1.6
		c-0.1-3.9-2.4-7.2-6.1-8.5c-4.2-1.5-9.3-0.1-12.2,3.3c-2.6,3-3,7.1-1,10.5c2.2,3.7,6.8,4.8,10.8,4.1c4.4-0.8,8.4-4.7,8.5-9.3
		c0-1.5-1.5-2-2.8-1.8C376.2,318.1,373.9,318.8,373.9,320.3z"/>
</g>
<path class="st2" d="M327.9,241.7"/>
<path class="st3" d="M120.8,41.6"/>
<path class="st2" d="M142.4,36.5"/>
<path class="st0" d="M156.5,40.9c-12.3-7-25.6-12.2-39.4-15.2c-2.1-0.5-4.5,0.1-6.4,1.1c-0.8,0.4-3.2,2.2-1.1,2.6
	c13.4,2.9,26.3,7.9,38.3,14.7c1.7,1,4.2,0.3,5.9-0.4C154.3,43.5,158,41.7,156.5,40.9L156.5,40.9z"/>
<path class="st0" d="M106.7,25.5c24.4,43.5,38.8,92.4,42.2,142.2c3.4,49.5-4.1,99.6-21.9,145.9c-9.6,24.8-22.1,48.5-37.2,70.5
	c-1.6,2.3,11.9,10.3,14.1,7.1c27.5-40,46.3-85.7,54.8-133.5c8.8-49.9,6.6-101.9-6.8-150.8c-7.4-27-18.2-52.9-31.9-77.4
	c-1.6-2.9-6.3-4.7-9.3-5.6C109,23.4,105.1,22.6,106.7,25.5L106.7,25.5z"/>
<path class="st0" d="M331.6,286.7c14.4-42.4,11.8-89.6-7.2-130.1c-16.4-35-44.7-64-79.1-81.6c-20.2-10.3-42.2-16.6-64.7-18.7
	c-3.3-0.3-8.3,1.3-9.2,4.9c-1,3.8,3.3,5.7,6.3,6c17.5,1.7,36.2,6.7,52.4,14.3c16.9,7.9,31.2,17.8,44.6,30.8
	c26.3,25.4,43.8,59.5,48.8,96c3.6,26,1.1,52.5-7.4,77.4c-1.2,3.6,3.4,5.8,6.3,6C325.9,291.7,330.3,290.4,331.6,286.7L331.6,286.7z"
	/>
<path class="st3" d="M165.4,51.2"/>
</svg>
