<?xml version="1.0" encoding="UTF-8"?>
<svg width="30px" height="30px" viewBox="0 0 30 30" version="1.1" xmlns="http://www.w3.org/2000/svg" xmlns:xlink="http://www.w3.org/1999/xlink">
    <title>linkedin</title>
    <g id="linkedin" stroke="none" stroke-width="1" fill="none" fill-rule="evenodd">
        <path d="M7.73766667,9.7 C8.83766667,9.7 9.65166667,8.952 9.65166667,7.94 C9.65166667,6.884 8.83766667,6.18 7.73766667,6.18 C6.61566667,6.18 5.80166667,6.884 5.80166667,7.94 C5.80166667,8.952 6.61566667,9.7 7.73766667,9.7 Z M9.32166667,24 L9.32166667,11.68 L6.10966667,11.68 L6.10966667,24 L9.32166667,24 Z M16.743,24 L16.743,15.53 C17.667,14.628 18.305,14.144 19.317,14.144 C20.527,14.144 21.055,14.826 21.055,16.718 L21.055,24 L24.289,24 L24.289,16.322 C24.289,13.22 23.145,11.372 20.483,11.372 C18.811,11.372 17.557,12.252 16.479,13.308 L16.391,13.308 L16.171,11.68 L13.531,11.68 L13.531,24 L16.743,24 Z" id="in" fill="#383838" fill-rule="nonzero"></path>
    </g>
</svg>