<?xml version="1.0" encoding="UTF-8"?>
<svg width="30px" height="30px" viewBox="0 0 30 30" version="1.1" xmlns="http://www.w3.org/2000/svg" xmlns:xlink="http://www.w3.org/1999/xlink">
    <title>cv</title>
    <g id="cv" stroke="none" stroke-width="1" fill="none" fill-rule="evenodd">
        <path d="M9.6,22.22 C10.436,22.22 11.129,22.1503333 11.679,22.011 C12.229,21.8716667 12.7533333,21.6406667 13.252,21.318 L13.252,21.318 L13.252,18.524 C12.7533333,18.8466667 12.24,19.0996667 11.712,19.283 C11.184,19.4663333 10.5753333,19.558 9.886,19.558 C9.07933333,19.558 8.45233333,19.272 8.005,18.7 C7.55766667,18.128 7.334,17.2406667 7.334,16.038 C7.334,13.618 8.18466667,12.408 9.886,12.408 C10.326,12.408 10.7696667,12.474 11.217,12.606 C11.6643333,12.738 12.1446667,12.9066667 12.658,13.112 L12.658,13.112 L13.626,10.582 C13.1713333,10.362 12.6396667,10.1713333 12.031,10.01 C11.4223333,9.84866667 10.7073333,9.768 9.886,9.768 C8.72733333,9.768 7.70433333,9.988 6.817,10.428 C5.92966667,10.868 5.23666667,11.55 4.738,12.474 C4.23933333,13.398 3.99,14.5933333 3.99,16.06 C3.99,18.2013333 4.47766667,19.7633333 5.453,20.746 C6.42833333,21.7286667 7.81066667,22.22 9.6,22.22 Z M22.25,22 L26.826,9.988 L23.394,9.988 L21.084,16.83 C20.8053333,17.6806667 20.644,18.502 20.6,19.294 L20.6,19.294 L20.512,19.294 C20.4826667,18.942 20.4313333,18.546 20.358,18.106 C20.2846667,17.666 20.182,17.2406667 20.05,16.83 L20.05,16.83 L17.74,9.988 L14.308,9.988 L18.884,22 L22.25,22 Z" fill="#383838" fill-rule="nonzero"></path>
    </g>
</svg>