<?xml version="1.0" encoding="UTF-8"?>
<svg width="160px" height="60px" viewBox="0 0 160 60" version="1.1" xmlns="http://www.w3.org/2000/svg" xmlns:xlink="http://www.w3.org/1999/xlink">
    <title>logo_D</title>
    <defs>
        <polygon id="path-1" points="0 0 159.924098 0 159.924098 60 0 60"></polygon>
    </defs>
    <g id="ABOUT" stroke="none" stroke-width="1" fill="none" fill-rule="evenodd">
        <g id="index_KV_new" transform="translate(-16.000000, -16.000000)">
            <g id="logo_D" transform="translate(16.000000, 16.000000)">
                <g id="Group-3">
                    <mask id="mask-2" fill="white">
                        <use xlink:href="#path-1"></use>
                    </mask>
                    <g id="Clip-2"></g>
                    <path d="M147.784571,35.1371151 C148.921717,34.1179706 150.293943,33.2458669 151.803992,32.9398009 C150.702339,34.5489521 149.221329,35.8783111 147.471591,36.756868 C146.905553,37.0412697 146.369937,37.2436236 145.879955,37.3902034 C146.412805,36.5586627 147.048445,35.7971852 147.784571,35.1371151 M130.641187,34.8854404 C130.722774,34.8269006 130.801595,34.7660562 130.884104,34.7075164 C131.301257,34.4125131 130.980441,34.7706656 130.641187,34.8854404 M130.248924,34.8255178 C130.267362,34.8471821 130.311152,34.8729949 130.360934,34.8997296 C130.319449,34.8854404 130.28073,34.8633151 130.248924,34.8255178 M104.543528,27.9381107 C105.59079,24.6695655 106.854235,21.3821216 108.52884,18.3795403 C108.630247,18.1983898 108.739491,18.0200049 108.845507,17.8406982 C108.857031,18.1131154 108.842281,18.389681 108.838132,18.6542622 C108.827992,19.3304652 108.787429,20.0057464 108.716904,20.6782619 C108.223235,25.3872534 106.217673,30.0128142 103.05791,33.5639174 C103.497188,31.6735911 103.951678,29.7869522 104.543528,27.9381107 M108.295603,16.4670887 C108.300673,16.4744638 108.311736,16.4799951 108.319111,16.4864483 C108.266102,16.4832217 108.237063,16.4680106 108.242594,16.4371274 C108.233375,16.4869092 108.209406,16.3458607 108.295603,16.4670887 M110.263367,15.9826378 C110.273047,15.972958 110.286414,15.9646611 110.29379,15.9545203 C110.385056,15.8332924 110.322368,15.9540594 110.263367,15.9826378 M82.4929476,18.3366726 C83.0345553,17.5507652 83.6019759,16.7759203 84.2237877,16.0494745 C84.2491396,16.1564133 84.2717258,16.2610473 84.2910854,16.3569234 C84.6939494,18.3537275 84.4141571,20.4058448 83.8034079,22.3302809 C82.5150728,26.3870383 80.0997327,30.183363 77.6516655,33.6376682 C76.2974156,35.548737 74.7772264,37.3920472 73.0201125,38.9587917 C73.1164495,37.2454674 73.9512169,35.1776781 74.368831,34.050673 C76.4057372,28.5585397 79.1667845,23.1618216 82.4929476,18.3366726 M83.7762123,15.0907135 C83.7402587,15.0897917 83.7208991,15.0842603 83.7259695,15.0718149 C83.730118,15.062596 83.7508604,15.0736587 83.7762123,15.0907135 M56.6773861,36.7246021 C56.8405599,36.4793805 57.0447575,36.3162067 57.2544865,36.1322906 C57.4697468,36.1940569 57.7315623,36.2973081 57.7684377,36.3162067 C58.0597535,36.467396 58.2902249,36.668828 58.4838209,36.9274169 C57.7735081,37.6326593 57.0286245,38.295956 56.2542407,38.9168459 C56.1440753,38.1599779 56.2473265,37.3708438 56.6773861,36.7246021 M57.0180229,36.0871182 C56.9894444,36.0958761 56.9673192,36.1032512 56.9663973,36.1078606 C56.9700848,36.0935714 56.9903663,36.0880401 57.0180229,36.0871182 M159.055544,37.2173499 C158.412528,37.2846475 157.392462,37.4731731 156.902941,37.9567021 C155.603082,39.2395059 153.982407,40.3111978 152.21377,40.696546 C150.258451,41.123379 148.091098,40.8647901 146.240873,40.132352 C145.766102,39.9442874 145.188541,39.705519 145.133689,39.1224264 C145.113407,38.9062442 145.166877,38.6882183 145.253534,38.4761846 C146.764043,38.1148055 148.22892,37.5814947 149.591927,36.9002213 C151.87636,35.7589269 153.870398,34.1009157 155.231562,31.9248049 C155.409486,31.6404032 154.828698,31.617356 154.709314,31.6247311 C150.154278,31.9003749 145.448974,33.9193043 142.857553,37.7999816 C142.652895,37.8013644 142.447775,37.8009034 142.243117,37.7921455 C140.109412,37.7018007 137.990458,37.0730748 136.169274,35.9566714 C135.724464,35.6842542 135.297631,35.3837195 134.892462,35.0550673 C134.423683,34.6743286 134.00653,34.1626821 133.474602,33.8699834 C131.991288,33.0541147 129.770466,33.9206871 128.45724,34.7185791 C127.331618,35.4026182 126.271449,36.2078852 125.282266,37.0970438 C125.554683,35.8082478 125.827561,34.5199127 126.099978,33.2311167 C126.171425,32.8937066 124.654462,33.1762645 124.599149,33.1891709 C124.16448,33.2901174 123.129202,33.4887837 122.921317,33.9626329 C121.781867,36.5623502 119.723296,38.9763075 117.132798,40.2420564 C117.285831,38.158595 117.438403,36.0751337 117.590975,33.9916723 C117.615866,33.6565669 114.494361,33.9976646 114.385579,34.8504087 C114.199819,36.3042222 113.527764,37.6842849 112.532128,38.7592035 C112.081787,39.2454981 111.484866,39.7548399 110.882874,40.0664372 C111.363638,39.1565362 111.233191,38.046125 110.601699,37.1329974 C109.548906,35.6100424 107.765518,35.4482515 106.060491,35.766763 C104.630186,36.0336488 103.296217,36.5886239 102.142016,37.41786 C102.222681,37.0979657 102.301964,36.7776105 102.379863,36.4567943 C107.06719,33.0684039 110.326056,27.9385717 111.526812,22.2915617 C111.825041,20.8907566 112.003426,19.4664434 112.038919,18.0338332 C112.059661,17.2073628 112.150928,16.2721099 111.548015,15.6157274 C111.065869,15.0911745 110.254609,15.2308401 109.624962,15.352529 C108.713678,15.5281482 107.783034,15.8812304 107.108214,16.5380739 C105.968303,17.6466413 105.227107,19.1857292 104.543067,20.597136 C103.66451,22.410024 102.902572,24.2809907 102.209775,26.172239 C100.935729,29.6491304 100.213432,33.2938049 99.3215076,36.8831664 C95.8630539,39.2925143 91.794312,40.5610288 87.4937158,40.4374962 C87.9002673,38.3890664 87.7002182,36.3346445 86.8165909,34.4221929 C86.6372841,34.03454 85.5757329,34.3198636 85.3157612,34.3802471 C84.801349,34.5000922 84.0509342,34.6701801 83.6844847,35.1030053 C83.4876621,35.2085612 83.3180352,35.3357815 83.2166277,35.4971114 C82.1283418,37.2330219 80.749662,38.739383 79.0985649,39.9548891 C78.3260248,40.5241534 77.4907965,41.0205888 76.6145443,41.4128511 C76.4522924,41.48568 76.2891187,41.5603528 76.1231793,41.6248848 C76.0826163,41.6410178 75.8876375,41.7004794 75.8203399,41.7235265 C75.7636439,41.7345891 75.6774476,41.7530269 75.6908149,41.7525659 C75.529485,41.7613238 75.376452,41.7793006 75.2137392,41.7710036 C74.1673991,41.7152295 73.5704782,41.2773339 73.2680997,40.6292484 C74.4766917,39.8479503 75.6170641,38.9514166 76.6712402,37.9308893 C79.895535,34.8093848 82.4072122,30.9282466 84.5731823,27.0226784 C85.8209545,24.7718948 86.9322875,22.3971176 87.4365589,19.8587057 C87.6568896,18.7487555 87.7504609,17.6116096 87.6430613,16.4827607 C87.5799121,15.8226907 87.5255209,14.9404462 87.1452431,14.3665724 C86.49347,13.3829205 84.5722605,14.0886239 83.7734466,14.434331 C82.8418813,14.837195 82.1251152,15.4797492 81.4484512,16.2214062 C79.4899054,18.3698605 77.9637238,20.9483744 76.5320355,23.4632782 C74.7463432,26.6009157 73.1325825,29.8514842 71.7815592,33.2002335 C71.1975447,34.6471329 70.6600854,36.1175404 70.244776,37.6220576 C69.9350224,38.7430705 69.6211204,40.1212894 69.9686713,41.1985127 C68.6932426,41.9461619 67.3339223,42.532942 65.9312734,42.8906336 C64.0178999,43.3783111 61.8689847,43.6369 59.956994,43.0160101 C58.6045879,42.5767316 57.3946131,41.6239629 56.7326993,40.366511 C58.4801334,39.2155368 60.110488,37.8940139 61.5785907,36.4056296 C61.6846076,36.3420195 61.7385379,36.2516748 61.7403817,36.1341343 C60.529485,34.3899269 58.0228781,34.8176818 56.2984912,35.428431 C54.4136961,36.096337 52.804084,37.4266179 53.0248755,39.6054944 C53.0718917,40.0728904 53.19819,40.5167783 53.3811843,40.9343925 C50.1813195,42.8837195 46.6044035,44.1402495 42.8380401,44.5154569 C45.8585981,43.0482761 48.3527595,40.6444595 49.8494407,37.5529162 C52.0273954,33.0527319 51.7918536,27.7302256 50.1923822,23.0903755 C47.3031928,14.7090529 40.0557894,8.13232131 31.5490904,5.78427878 C30.279654,5.43442321 28.9719593,5.19427202 27.7523047,4.68400836 C26.5662989,4.18757298 25.6974218,3.43024399 24.8626544,2.46963924 C24.1832248,1.68834122 23.4761385,0.737416262 22.5173775,0.283387622 C21.2802071,-0.302470653 19.6493916,0.113760679 18.4850501,0.683025014 C18.3025167,0.771986971 17.7567605,0.96742671 17.7890265,1.25966443 C19.4640926,16.4767685 17.9199342,32.0054699 13.2999047,46.5993793 C9.63633151,46.3172823 6.02853236,45.5912974 2.53827362,44.4329482 C1.78831971,44.1840391 0.792683302,44.4407842 0.271817958,45.0404708 C-0.210789134,45.5949849 -0.0347089915,46.3002274 0.671916293,46.5348473 C4.50050704,47.8056665 8.50517792,48.6067851 12.5425757,48.8907258 C11.2878895,52.5667445 9.84790425,56.1773093 8.21201831,59.7007559 C7.99076578,60.1773708 9.31505439,59.9492041 9.47039211,59.9197038 C9.94424129,59.8298199 11.1196454,59.6210128 11.3634841,59.0969209 C12.8924313,55.8030238 14.2489859,52.4312273 15.4446715,49.0041178 C18.0600608,49.0239383 20.6749892,48.825272 23.2511985,48.3809231 C30.8908641,47.0630877 38.0483836,43.6309077 43.5543452,38.1203368 C44.8620398,36.8112593 46.1563672,35.3579067 47.0911591,33.7487555 C47.4912575,33.0605679 46.7371551,32.5258743 46.1287106,32.4571938 C45.3409594,32.3677709 44.4439647,32.7245406 44.0374132,33.4237908 C43.9927017,33.5007682 43.9447637,33.5759019 43.8968256,33.6505746 C43.8461219,33.7298568 43.7926526,33.8077561 43.741027,33.8865773 C43.6917061,33.9552578 43.6433071,34.0248602 43.5935253,34.0935407 C43.0044404,34.9071047 42.3568158,35.6782619 41.6746205,36.4148485 C39.4929783,38.7707271 36.8084475,40.857415 34.0372595,42.3983468 C33.2753211,42.8219532 32.4967888,43.2151374 31.7044281,43.5783603 C31.3084783,43.7595108 30.9093018,43.9332862 30.5068988,44.0992256 C30.3059277,44.1821953 30.1040348,44.2637822 29.90122,44.3430643 C29.8145627,44.3771741 29.7274445,44.410362 29.6403263,44.4440108 C29.6052947,44.4573782 29.4568711,44.5131522 29.4043236,44.5334337 C27.7799613,45.127128 26.1025905,45.5885317 24.4104695,45.9429967 C22.8414203,46.2716489 21.1216428,46.5016594 19.355771,46.6265749 C18.2697898,46.7030914 17.2409655,46.7321308 16.2098365,46.7252166 C19.6719778,36.0590007 21.5258896,24.8723803 21.6521879,13.6544158 C21.6927509,10.044312 21.5424836,6.43559093 21.2262768,2.84023723 C21.7425327,3.42563456 22.2292883,4.04283695 22.8082324,4.56554606 C24.3473204,5.95667138 26.517439,6.32957409 28.4584691,6.83568926 C32.3345369,7.8456149 35.9520159,9.79632475 39.0020742,12.3840575 C45.4686405,17.8706595 50.0531774,27.2462356 47.6069541,35.7773646 C46.4951601,39.6557372 43.5059462,43.8189724 39.4279854,44.8192182 C39.0698328,44.9072583 38.2290732,45.1165263 38.0327116,45.4709913 C37.8511001,45.7987217 38.1617756,45.8448159 38.4872012,45.8434331 C43.8276842,45.8143937 49.2336212,44.4776596 53.9993086,41.9765841 C54.7764581,42.9920411 55.9191353,43.7530576 57.113438,44.1301088 C59.6311075,44.925696 62.4414756,44.5578637 64.9738953,44.0111855 C66.9135425,43.5926495 68.786353,42.9708377 70.5522248,42.1379141 C70.7822353,42.3591666 71.0707854,42.5481532 71.4423053,42.6878188 C73.6133458,43.5046094 76.310322,42.6389589 78.3209545,41.7548706 C78.7971084,41.5456026 79.2621996,41.3137484 79.7194549,41.067144 C76.640818,46.2172577 74.175696,51.7246021 72.3950741,57.4665663 C72.2415801,57.9616188 73.4469455,57.7246942 73.6534479,57.6855141 C74.1397425,57.5933255 75.2870291,57.388667 75.5460789,56.8627312 C78.5256131,50.8137791 81.5051472,44.764827 84.4851423,38.7158749 C84.5418382,39.5842911 84.4846813,40.4614652 84.2897025,41.3234282 C84.2191783,41.6354864 84.5888544,41.6105955 84.8119507,41.6235019 C89.6135917,41.8991457 94.5645781,40.792883 98.8822291,38.5872718 C98.3664341,40.4941921 97.7695132,42.3748387 96.9794573,44.1951017 C96.7706502,44.675865 98.0732745,44.4453936 98.2378311,44.4140495 C98.8476584,44.2983529 99.7165356,44.1061398 100.130462,43.5908057 C101.097981,42.388206 101.81106,41.0242763 102.643522,39.7304099 C103.300827,38.7084998 104.230087,37.3035462 105.425773,36.8241657 C105.427617,36.8241657 105.428078,36.8246266 105.42946,36.8246266 C105.589868,36.8426034 105.747972,36.8532051 105.905614,36.8937681 C106.143922,36.9546125 106.364713,37.0647778 106.571677,37.1970684 C107.022018,37.4851576 107.369569,37.8870997 107.616634,38.3591052 C108.065131,39.214615 108.220008,40.4167537 107.422577,41.1219962 C107.051518,41.4501875 107.492179,41.5797124 107.81023,41.566345 C109.991872,41.4741565 112.241734,40.7901174 114.040332,39.5561736 C113.986863,40.2872288 113.933394,41.0182841 113.879463,41.7493393 C113.850424,42.1494376 115.537014,41.7567144 115.595553,41.7419642 C117.905338,41.1496528 120.088824,40.1079221 121.928907,38.6536476 L121.261462,41.8092619 C121.190016,42.1462111 122.706979,41.8641141 122.762292,41.8512077 C123.281774,41.7299797 124.115159,41.5534386 124.439663,41.0777457 C126.102283,38.6398193 128.150252,36.6964845 130.514428,34.9785508 C130.5596,35.001137 130.601085,35.0228013 130.627358,35.0407781 C130.89701,35.226538 131.127481,35.4653064 131.369476,35.6837933 C131.781098,36.056235 132.216228,36.3996374 132.675327,36.7112347 C133.584306,37.3279762 134.579021,37.8156536 135.617525,38.1724233 C137.716198,38.8942597 139.96145,39.1228873 142.187803,38.9555651 C141.869753,39.6801672 141.803377,40.4209022 142.65059,40.9251736 C143.5356,41.4520312 144.695332,41.7092373 145.699727,41.8848565 C148.070816,42.3001659 150.54654,42.0706164 152.857707,41.4363592 C155.422854,40.7320386 157.878757,39.5225247 159.785216,37.6404954 C160.273354,37.1583492 159.341328,37.1878495 159.055544,37.2173499" id="Fill-1" fill="#231916" mask="url(#mask-2)"></path>
                </g>
                <path d="M32.4539672,13.6888483 C31.8427571,13.2408119 31.1338271,13.0006607 30.3898654,12.8964876 C30.022494,12.844862 29.5606293,12.9361287 29.2107738,13.030161 C28.8563088,13.1251152 28.4207178,13.2763045 28.1229488,13.5035493 C27.9851269,13.6091052 27.6767562,13.8266701 27.7634134,14.0400867 C27.8459222,14.2433624 28.081003,14.286691 28.2778256,14.3148086 C28.5193596,14.3650513 28.7525966,14.4424897 28.9784586,14.5415924 C29.4472374,14.7881968 29.8556327,15.1306773 30.1769098,15.551979 C30.2820048,15.7073167 30.3792637,15.8668029 30.4580849,16.0373517 C30.5585705,16.2539948 30.8254563,16.3005501 31.03749,16.3222144 C31.4131584,16.3604726 31.8579682,16.2908703 32.2165816,16.188541 C32.5899453,16.0820632 32.9923483,15.9525383 33.3044066,15.7146918 C33.4362362,15.6142063 33.7593571,15.3846568 33.663942,15.1786153 C33.3938295,14.5969055 32.9716059,14.0682042 32.4539672,13.6888483" id="Fill-4" fill="#231916"></path>
                <path d="M114.65924,28.712172 C114.900774,28.7624147 115.134011,28.8398531 115.359873,28.9389558 C115.828652,29.1855602 116.237048,29.5285016 116.558786,29.9493424 C116.66342,30.1046801 116.760679,30.2641663 116.8395,30.4347151 C116.939985,30.6513582 117.206871,30.6979135 117.418905,30.7195778 C117.794573,30.757836 118.239383,30.6882337 118.597996,30.5859044 C118.97136,30.4789656 119.373763,30.3499017 119.685821,30.1120552 C119.817651,30.0111087 120.140772,29.7820202 120.045357,29.5759787 C119.775705,28.9942689 119.353021,28.4655676 118.835382,28.0862117 C118.224172,27.6381753 117.515242,27.3980241 116.77128,27.293851 C116.403909,27.2422254 115.942044,27.3334921 115.592189,27.4275244 C115.238185,27.5224786 114.802133,27.6736679 114.504364,27.9009127 C114.366542,28.0064686 114.058632,28.2240336 114.144828,28.4374501 C114.227337,28.6407258 114.462418,28.6840545 114.65924,28.712172" id="Fill-6" fill="#231916"></path>
            </g>
        </g>
    </g>
</svg>